<mxfile host="app.diagrams.net" modified="2024-06-28T01:18:17.836Z" agent="Mozilla/5.0 (Windows NT 10.0; Win64; x64) AppleWebKit/537.36 (KHTML, like Gecko) Chrome/126.0.0.0 Safari/537.36" etag="gzetWePKnkDZrlDCMJ0m" version="24.5.1" type="github">
  <diagram name="Page-1" id="74b105a0-9070-1c63-61bc-23e55f88626e">
    <mxGraphModel dx="614" dy="799" grid="1" gridSize="10" guides="1" tooltips="1" connect="1" arrows="1" fold="1" page="1" pageScale="1.5" pageWidth="1169" pageHeight="826" background="none" math="0" shadow="0">
      <root>
        <mxCell id="0" style=";html=1;" />
        <mxCell id="1" style=";html=1;" parent="0" />
        <mxCell id="DT--2l8QYR1WhFh63XL8-3" value="&lt;font style=&quot;font-size: 48px;&quot;&gt;程序总架构&lt;/font&gt;" style="strokeWidth=2;dashed=0;align=center;fontSize=8;shape=rect;verticalLabelPosition=bottom;verticalAlign=top;fillColor=#c0f5a9;html=1;" vertex="1" parent="1">
          <mxGeometry x="300" y="230" width="240" height="480" as="geometry" />
        </mxCell>
        <mxCell id="DT--2l8QYR1WhFh63XL8-27" value="主程序" style="swimlane;whiteSpace=wrap;html=1;" vertex="1" parent="1">
          <mxGeometry x="330" y="250" width="180" height="80" as="geometry" />
        </mxCell>
        <mxCell id="DT--2l8QYR1WhFh63XL8-29" value="&lt;font face=&quot;Lucida Console&quot;&gt;初始化系统(init_system)&lt;br&gt;运行系统(run_system)&lt;/font&gt;" style="text;html=1;align=left;verticalAlign=middle;whiteSpace=wrap;rounded=0;" vertex="1" parent="DT--2l8QYR1WhFh63XL8-27">
          <mxGeometry y="20" width="160" height="50" as="geometry" />
        </mxCell>
        <mxCell id="DT--2l8QYR1WhFh63XL8-30" value="进程同步与互斥模块" style="swimlane;whiteSpace=wrap;html=1;" vertex="1" parent="1">
          <mxGeometry x="330" y="340" width="180" height="80" as="geometry" />
        </mxCell>
        <mxCell id="DT--2l8QYR1WhFh63XL8-31" value="&lt;font face=&quot;Lucida Console&quot;&gt;信号量定义(Semaphore)&lt;br&gt;P操作(wait)&lt;br&gt;V操作(signal)&amp;nbsp;&lt;/font&gt;" style="text;html=1;align=left;verticalAlign=middle;whiteSpace=wrap;rounded=0;" vertex="1" parent="DT--2l8QYR1WhFh63XL8-30">
          <mxGeometry x="2.5" y="25" width="165" height="50" as="geometry" />
        </mxCell>
        <mxCell id="DT--2l8QYR1WhFh63XL8-33" value="生产者消费者模块" style="swimlane;whiteSpace=wrap;html=1;" vertex="1" parent="1">
          <mxGeometry x="330" y="430" width="180" height="80" as="geometry" />
        </mxCell>
        <mxCell id="DT--2l8QYR1WhFh63XL8-34" value="&lt;font face=&quot;Lucida Console&quot;&gt;缓冲区定义(Buffer)&lt;br&gt;生产者(producer)&lt;br&gt;消费者(consumer)&lt;/font&gt;" style="text;html=1;align=left;verticalAlign=middle;whiteSpace=wrap;rounded=0;" vertex="1" parent="DT--2l8QYR1WhFh63XL8-33">
          <mxGeometry x="2.5" y="25" width="165" height="50" as="geometry" />
        </mxCell>
        <mxCell id="DT--2l8QYR1WhFh63XL8-35" value="进程调度算法模块" style="swimlane;whiteSpace=wrap;html=1;" vertex="1" parent="1">
          <mxGeometry x="330" y="520" width="180" height="90" as="geometry" />
        </mxCell>
        <mxCell id="DT--2l8QYR1WhFh63XL8-36" value="&lt;font face=&quot;Lucida Console&quot;&gt;先来先服务(FCFS)&lt;br&gt;最短作业优先(SJF)&lt;br&gt;时间片轮转(RR)&lt;br&gt;优先级调度(priority)&lt;/font&gt;" style="text;html=1;align=left;verticalAlign=middle;whiteSpace=wrap;rounded=0;" vertex="1" parent="DT--2l8QYR1WhFh63XL8-35">
          <mxGeometry x="5" y="30" width="165" height="50" as="geometry" />
        </mxCell>
        <mxCell id="DT--2l8QYR1WhFh63XL8-37" value="信息可视化模块" style="swimlane;whiteSpace=wrap;html=1;" vertex="1" parent="1">
          <mxGeometry x="330" y="620" width="180" height="70" as="geometry" />
        </mxCell>
        <mxCell id="DT--2l8QYR1WhFh63XL8-38" value="&lt;font face=&quot;Lucida Console&quot;&gt;记录进程状态(log_process)&lt;br&gt;显示调度图(display_chart)&lt;/font&gt;" style="text;html=1;align=left;verticalAlign=middle;whiteSpace=wrap;rounded=0;" vertex="1" parent="DT--2l8QYR1WhFh63XL8-37">
          <mxGeometry x="5" y="20" width="175" height="50" as="geometry" />
        </mxCell>
      </root>
    </mxGraphModel>
  </diagram>
</mxfile>
